<svg xmlns="http://www.w3.org/2000/svg" width="305" height="114" fill="none" viewBox="0 0 305 114">
  <rect width="111" height="111" x="1.5" y="1.5" fill="url(#paint0_linear)" stroke="#fff" stroke-width="3" rx="8.5"/>
  <path fill="#fff" d="M9.94 81c-.44 0-.814-.132-1.122-.396-.264-.308-.396-.682-.396-1.122V74.73c0-.44.132-.792.396-1.056a1.528 1.528 0 011.122-.462h4.752c.44 0 .814.154 1.122.462.308.264.462.616.462 1.056v4.752c0 .44-.154.814-.462 1.122-.308.264-.682.396-1.122.396H9.94zm17.498 0c-.44 0-.814-.132-1.122-.396-.264-.308-.396-.682-.396-1.122V36.384c0-.484.132-.858.396-1.122a1.528 1.528 0 011.122-.462H42.42c6.644 0 11.44 1.496 14.388 4.488 2.948 2.948 4.488 7.414 4.62 13.398.044 1.276.066 2.992.066 5.148 0 2.156-.022 3.894-.066 5.214-.132 4.18-.836 7.59-2.112 10.23-1.232 2.596-3.19 4.532-5.874 5.808C50.758 80.362 47.194 81 42.75 81H27.438zm14.982-5.61c3.036 0 5.434-.418 7.194-1.254 1.804-.836 3.102-2.156 3.894-3.96.836-1.848 1.298-4.312 1.386-7.392.088-2.64.132-4.29.132-4.95 0-.704-.044-2.332-.132-4.884-.088-4.356-1.122-7.524-3.102-9.504-1.98-2.024-5.214-3.036-9.702-3.036h-9.702v34.98H42.42zm43.854 6.27c-3.652 0-6.82-.572-9.504-1.716-2.64-1.144-4.664-2.64-6.072-4.488-1.408-1.892-2.156-3.916-2.244-6.072 0-.352.132-.66.396-.924.308-.308.66-.462 1.056-.462h3.366c.836 0 1.408.44 1.716 1.32.396 1.848 1.518 3.432 3.366 4.752 1.892 1.32 4.532 1.98 7.92 1.98 3.652 0 6.402-.638 8.25-1.914 1.848-1.32 2.772-3.146 2.772-5.478 0-1.496-.462-2.706-1.386-3.63-.88-.924-2.2-1.738-3.96-2.442-1.76-.704-4.4-1.584-7.92-2.64-3.432-.968-6.16-2.002-8.184-3.102-2.024-1.1-3.542-2.464-4.554-4.092-1.012-1.628-1.518-3.674-1.518-6.138 0-2.376.638-4.51 1.914-6.402 1.32-1.892 3.19-3.366 5.61-4.422 2.42-1.1 5.302-1.65 8.646-1.65 3.432 0 6.38.616 8.844 1.848 2.464 1.188 4.334 2.706 5.61 4.554 1.276 1.848 1.958 3.696 2.046 5.544 0 .352-.132.66-.396.924-.22.264-.55.396-.99.396H97.56c-.924 0-1.496-.418-1.716-1.254-.264-1.848-1.298-3.366-3.102-4.554-1.804-1.232-4.07-1.848-6.798-1.848-2.992 0-5.346.572-7.062 1.716-1.716 1.144-2.574 2.838-2.574 5.082 0 1.496.396 2.728 1.188 3.696.836.968 2.09 1.826 3.762 2.574 1.672.704 4.114 1.518 7.326 2.442 3.74 1.012 6.688 2.068 8.844 3.168 2.156 1.056 3.762 2.398 4.818 4.026 1.056 1.584 1.584 3.608 1.584 6.072 0 4.092-1.584 7.304-4.752 9.636-3.168 2.332-7.436 3.498-12.804 3.498z"/>
  <defs>
    <linearGradient id="paint0_linear" x1="57" x2="57" y1="0" y2="114" gradientUnits="userSpaceOnUse">
      <stop stop-color="#686868"/>
      <stop offset="1" stop-color="#303030"/>
      <stop offset="1" stop-color="#A0A0A0"/>
      <stop offset="1" stop-color="#A0A0A0"/>
    </linearGradient>
  </defs>
</svg>
