<svg id="Layer_1" enable-background="new 0 0 512.009 512.009" height="512" viewBox="0 0 512.009 512.009" width="512" xmlns="http://www.w3.org/2000/svg"><g><path d="m370.352 141.657c3.125 3.124 8.189 3.123 11.313 0l128-128c3.125-3.125 3.125-8.189 0-11.314-3.124-3.123-8.189-3.123-11.313 0l-44.304 44.304c-6.322-4.195-13.898-6.647-22.04-6.647h-162.75c-10.68 0-20.73 4.16-28.28 11.72l-230.14 230.14c-14.458 14.458-14.444 37.836 0 52.28l167.03 167.03c14.459 14.458 37.836 14.444 52.28 0 120.064-120.051 67.046-67.033 230.14-230.14 7.56-7.56 11.72-17.6 11.72-28.28 0-145.579.451-164.044-.639-170.354-.275-1.59-2.241-2.195-3.382-1.054l-45.906 45.906c-.812.812-1.058 2.015-.683 3.101 11.009 31.81-13.647 65.364-48.003 63.584-25.333-1.313-45.405-22.603-45.387-47.97.028-39.077 44.336-61.47 75.788-39.065l-33.445 33.445c-3.124 3.125-3.124 8.189.001 11.314z"/></g></svg>